<?xml version="1.0" encoding="UTF-8" standalone="no"?>
<!DOCTYPE svg PUBLIC "-//W3C//DTD SVG 1.1//EN" "http://www.w3.org/Graphics/SVG/1.1/DTD/svg11.dtd">
<svg width="100%" height="100%" viewBox="0 0 1000 1000" version="1.1" xmlns="http://www.w3.org/2000/svg" xmlns:xlink="http://www.w3.org/1999/xlink" xml:space="preserve" xmlns:serif="http://www.serif.com/" style="fill-rule:evenodd;clip-rule:evenodd;stroke-linejoin:round;stroke-miterlimit:1.41421;">
    <path d="M500,0C775.958,0 1000,224.042 1000,500C1000,775.958 775.958,1000 500,1000C224.042,1000 0,775.958 0,500C0,224.042 224.042,0 500,0ZM500,62.086C741.691,62.086 937.914,258.309 937.914,500C937.914,741.691 741.691,937.914 500,937.914C258.309,937.914 62.086,741.691 62.086,500C62.086,258.309 258.309,62.086 500,62.086ZM500,107.063C716.868,107.063 892.937,283.132 892.937,500C892.937,716.868 716.868,892.937 500,892.937C283.132,892.937 107.063,716.868 107.063,500C107.063,283.132 283.132,107.063 500,107.063ZM445.158,221.555L409.087,221.555L297.194,256.89L297.194,286.336L351.668,286.336L351.668,776.972L435.22,778.445L455.832,778.445C485.523,778.445 510.858,777.034 531.838,774.212C552.818,771.39 570.179,767.034 583.92,761.145C622.69,743.723 652.197,719.124 672.441,687.347C692.684,655.571 702.806,617.844 702.806,574.166C702.806,523.863 688.942,482.762 661.214,450.863C633.487,418.963 597.906,403.014 554.474,403.014C538.034,403.014 520.857,405.774 502.945,411.295C485.032,416.816 465.77,425.343 445.158,436.876L445.158,221.555ZM445.158,737.589C447.857,737.834 450.924,738.018 454.359,738.141C457.795,738.264 462.702,738.325 469.082,738.325C514.723,738.325 548.278,726.608 569.749,703.174C591.22,679.741 601.955,643.24 601.955,593.674C601.955,551.223 592.508,518.649 573.614,495.951C554.72,473.254 527.728,461.905 492.639,461.905C486.259,461.905 479.204,462.396 471.475,463.377C463.745,464.359 454.973,465.831 445.158,467.794L445.158,737.589Z" style="fill:rgb(17,171,255);"/>
</svg>
